<?xml version="1.0" standalone="no"?>
<!DOCTYPE svg PUBLIC "-//W3C//DTD SVG 20010904//EN"
 "http://www.w3.org/TR/2001/REC-SVG-20010904/DTD/svg10.dtd">
<svg version="1.0" xmlns="http://www.w3.org/2000/svg"
 width="800.000000pt" height="600.000000pt" viewBox="0 0 800.000000 600.000000"
 preserveAspectRatio="xMidYMid meet">

<g transform="translate(0.000000,600.000000) scale(0.100000,-0.100000)"
fill="#000000" stroke="none">
<path d="M3294 4196 c-3 -8 13 -67 37 -130 34 -95 45 -116 61 -116 12 0 18 5
16 13 -3 6 -22 63 -44 124 -37 107 -58 140 -70 109z"/>
<path d="M3133 4064 c-4 -11 21 -43 83 -105 88 -88 114 -105 114 -72 0 17
-167 193 -183 193 -4 0 -10 -7 -14 -16z"/>
<path d="M3004 3909 c-11 -18 8 -28 120 -70 119 -43 139 -47 134 -23 -2 11
-44 32 -122 60 -137 51 -123 47 -132 33z"/>
<path d="M3390 3830 c-19 -19 -20 -33 -20 -539 0 -348 3 -522 10 -526 6 -4 36
4 66 16 l55 23 50 -27 49 -28 49 27 48 28 47 -28 46 -27 49 26 48 27 49 -25
49 -25 48 25 47 26 48 -26 47 -25 49 25 49 25 47 -26 48 -26 47 27 47 26 59
-21 c32 -12 61 -17 64 -13 2 5 7 202 9 438 l4 430 -105 106 -106 107 -489 0
c-475 0 -489 -1 -508 -20z m970 -98 c0 -102 8 -110 115 -114 l80 -3 3 -402 c1
-222 -1 -403 -5 -402 -5 0 -26 9 -48 19 -40 18 -40 18 -89 -8 l-48 -26 -48 25
-48 26 -48 -25 -48 -24 -51 25 -51 25 -43 -26 -43 -25 -51 25 -52 25 -46 -26
-47 -26 -48 27 -49 27 -47 -27 -48 -27 -48 27 -48 27 -43 -20 c-24 -10 -45
-19 -47 -19 -7 0 -4 986 3 993 3 4 217 7 475 7 l468 0 0 -78z m160 -74 c0 -9
-81 -11 -104 -2 -12 5 -16 21 -16 67 l0 61 60 -59 c33 -33 60 -63 60 -67z"/>
<path d="M3670 3450 c-23 -23 -26 -49 -7 -74 16 -21 60 -24 82 -6 21 17 19 63
-3 83 -25 22 -48 21 -72 -3z"/>
<path d="M4228 3458 c-30 -24 -31 -56 -4 -83 14 -14 30 -25 36 -25 6 0 22 11
36 25 18 19 23 31 19 48 -8 26 -32 47 -55 47 -9 0 -23 -6 -32 -12z"/>
<path d="M3916 3156 c-73 -27 -121 -75 -99 -97 9 -9 21 -4 49 20 20 18 47 37
61 42 56 21 134 1 186 -48 19 -19 30 -24 38 -16 30 30 -62 98 -146 107 -32 4
-64 1 -89 -8z"/>
<path d="M4796 3125 c-117 -41 -150 -185 -61 -264 62 -54 135 -60 202 -16 14
9 27 14 31 11 3 -3 0 -6 -6 -6 -24 0 -11 -29 33 -78 25 -28 55 -54 66 -57 20
-7 49 9 49 27 0 15 -112 128 -127 128 -16 0 -16 0 3 39 22 43 14 118 -15 160
-40 55 -111 78 -175 56z m125 -28 c19 -12 42 -38 51 -57 64 -127 -75 -260
-201 -192 -76 41 -95 160 -35 223 36 38 57 48 110 48 27 1 53 -7 75 -22z m121
-294 c46 -45 62 -83 35 -83 -22 0 -110 97 -104 114 9 24 17 20 69 -31z"/>
<path d="M4794 3090 c-41 -16 -74 -68 -74 -117 0 -39 5 -50 39 -84 32 -32 46
-39 78 -39 53 0 103 35 122 84 37 98 -66 196 -165 156z m129 -40 c55 -62 22
-171 -57 -185 -48 -10 -99 15 -119 58 -21 44 -21 60 0 104 32 68 124 80 176
23z"/>
<path d="M4789 3049 l-24 -20 24 12 c14 6 36 15 50 20 l26 7 -26 1 c-15 1 -37
-8 -50 -20z"/>
<path d="M4890 3045 c7 -9 15 -13 17 -11 7 7 -7 26 -19 26 -6 0 -6 -6 2 -15z"/>
<path d="M4770 2916 c0 -2 7 -9 15 -16 9 -7 15 -8 15 -2 0 5 -7 12 -15 16 -8
3 -15 4 -15 2z"/>
<path d="M4896 2911 c-4 -6 -21 -15 -39 -20 -29 -8 -30 -9 -6 -10 27 -1 68 23
57 34 -3 3 -9 2 -12 -4z"/>
<path d="M2780 2820 c0 -8 10 -24 22 -37 l21 -23 -23 -25 c-31 -32 -17 -46 15
-15 l25 23 25 -23 c32 -31 46 -17 15 15 l-23 25 23 25 c31 33 17 45 -15 15
l-25 -24 -30 29 c-18 17 -30 23 -30 15z"/>
<path d="M3445 2729 c-27 -11 -56 -25 -63 -31 -10 -9 -12 -58 -12 -207 l2
-196 -208 -3 c-201 -2 -250 -10 -214 -32 25 -16 1579 -13 1610 3 l25 13 5 208
c3 133 1 211 -5 216 -5 4 -36 17 -69 29 l-58 22 -45 -27 -45 -26 -49 27 -49
26 -48 -27 -48 -27 -47 27 -46 28 -50 -28 -50 -27 -46 28 -47 27 -49 -27 -50
-27 -45 27 -46 27 -49 -27 -50 -27 -44 26 c-51 31 -47 30 -110 5z m105 -46
l50 -28 48 26 49 25 46 -25 47 -26 49 26 50 26 38 -23 c48 -29 58 -29 111 -2
l42 23 43 -23 c52 -28 55 -27 108 2 l42 24 38 -24 c48 -30 60 -30 112 0 42 24
42 24 87 6 l45 -18 3 -177 c2 -122 -1 -182 -9 -191 -16 -19 -1108 -21 -1127
-2 -8 8 -12 65 -12 190 l0 179 43 19 c23 10 43 19 44 19 2 1 25 -11 53 -26z"/>
<path d="M2755 2380 c-3 -5 -3 -14 0 -20 7 -11 497 -15 508 -4 3 3 3 12 0 20
-4 11 -50 14 -253 14 -155 0 -251 -4 -255 -10z"/>
<path d="M4747 2376 c-3 -8 -3 -17 0 -20 4 -3 141 -6 305 -6 280 0 299 1 296
18 -3 16 -27 17 -300 20 -248 2 -297 0 -301 -12z"/>
<path d="M2374 2279 c-14 -24 29 -29 257 -29 186 0 239 3 248 13 6 8 8 17 4
20 -12 12 -501 8 -509 -4z"/>
<path d="M4650 2275 c0 -32 122 -34 128 -2 3 15 -5 17 -62 17 -52 0 -66 -3
-66 -15z"/>
<path d="M4840 2276 c0 -8 7 -17 16 -20 25 -10 757 -7 773 3 42 27 -8 31 -395
31 -330 0 -394 -2 -394 -14z"/>
<path d="M5000 1969 c0 -50 -1 -51 -18 -36 -10 10 -31 17 -46 17 -32 0 -76
-40 -76 -70 0 -24 18 -61 34 -72 18 -12 71 -9 85 5 11 10 14 10 18 0 3 -7 9
-13 14 -13 12 0 12 207 -1 215 -6 4 -10 -14 -10 -46z m-20 -49 c58 -58 -21
-148 -82 -93 -37 34 -8 113 42 113 11 0 29 -9 40 -20z"/>
<path d="M2812 1898 l2 -103 5 90 6 90 64 -87 c36 -49 71 -88 78 -88 10 0 13
24 13 100 0 123 -18 134 -22 14 l-3 -86 -63 86 c-34 47 -67 86 -72 86 -6 0 -9
-40 -8 -102z"/>
<path d="M3330 1900 l0 -100 59 0 c49 0 65 4 90 26 27 22 31 32 31 74 0 42 -4
52 -31 74 -25 22 -41 26 -90 26 l-59 0 0 -100z m121 75 c55 -29 64 -92 20
-136 -25 -24 -37 -29 -80 -29 l-51 0 0 83 c0 46 3 87 7 90 12 12 74 7 104 -8z"/>
<path d="M4132 1898 c1 -72 3 -89 7 -58 l6 45 50 6 50 5 -50 5 -50 4 -3 42 -3
42 63 4 63 3 -67 2 -68 2 2 -102z"/>
<path d="M5173 1930 c0 -41 2 -58 4 -37 2 20 2 54 0 75 -2 20 -4 3 -4 -38z"/>
<path d="M3749 1970 c-2 -14 -10 -24 -17 -22 -17 3 -15 -15 3 -22 11 -4 15
-21 15 -66 l0 -60 30 0 c17 0 30 4 30 8 0 5 -10 8 -22 8 -21 -1 -23 4 -26 57
-3 55 -2 57 23 57 14 0 25 5 25 10 0 6 -6 10 -12 9 -28 -3 -37 2 -40 24 -4 21
-4 21 -9 -3z"/>
<path d="M3055 1925 c-52 -51 -20 -125 53 -125 49 0 72 24 72 73 0 72 -75 103
-125 52z m90 -10 c30 -29 32 -58 5 -85 -28 -28 -64 -25 -89 7 -24 30 -20 58
11 86 27 23 44 22 73 -8z"/>
<path d="M3578 1943 c-10 -2 -18 -8 -18 -13 0 -4 14 -3 30 3 36 14 63 1 68
-31 3 -18 -3 -21 -44 -24 -54 -3 -77 -26 -58 -55 13 -22 70 -29 90 -12 10 8
14 8 14 0 0 -6 5 -11 10 -11 17 0 12 116 -6 134 -15 15 -49 19 -86 9z m82 -91
c0 -10 -5 -23 -12 -30 -17 -17 -63 -15 -78 3 -19 23 5 45 51 45 31 0 39 -4 39
-18z"/>
<path d="M3873 1943 c-7 -2 -13 -9 -13 -14 0 -6 9 -5 21 1 26 14 65 6 73 -16
10 -26 -2 -34 -49 -34 -34 0 -47 -5 -55 -20 -18 -34 4 -60 50 -60 21 0 42 5
46 11 4 8 9 7 15 -2 5 -9 9 12 9 53 0 56 -3 69 -19 78 -20 10 -57 12 -78 3z
m87 -85 c0 -22 -33 -48 -62 -48 -30 0 -44 19 -34 45 7 19 96 22 96 3z"/>
<path d="M4302 1927 c-49 -52 -15 -127 57 -127 47 0 71 26 71 77 0 66 -83 98
-128 50z m93 -12 c14 -13 25 -33 25 -45 0 -41 -62 -75 -96 -52 -13 9 -34 46
-34 62 0 17 47 60 65 60 9 0 27 -11 40 -25z"/>
<path d="M4482 1890 c-1 -40 3 -71 10 -78 17 -17 73 -15 89 4 12 14 14 14 20
-3 4 -10 7 18 7 62 -1 79 -1 79 -7 22 -5 -42 -12 -63 -26 -73 -47 -34 -82 -4
-88 76 l-3 55 -2 -65z"/>
<path d="M4680 1875 c0 -41 4 -75 9 -75 5 0 7 9 4 20 -10 36 7 89 32 106 23
15 27 15 50 0 22 -14 25 -24 25 -71 0 -30 5 -55 10 -55 16 0 12 103 -6 128
-18 26 -65 30 -84 7 -7 -8 -17 -15 -22 -15 -6 0 -8 7 -4 15 3 8 1 15 -4 15 -6
0 -10 -33 -10 -75z"/>
<path d="M5166 1811 c-4 -5 -2 -12 3 -15 5 -4 12 -2 15 3 4 5 2 12 -3 15 -5 4
-12 2 -15 -3z"/>
</g>
</svg>
